<svg width="32" height="32" viewBox="0 0 32 32" fill="none" xmlns="http://www.w3.org/2000/svg">
<path d="M21.3333 22.6667H9.33333V14.0001C9.33333 10.6667 12 8.00008 15.3333 8.00008C18.6667 8.00008 21.3333 10.6667 21.3333 14.0001V22.6667ZM24 21.3334V14.0001C24 9.90675 21.1467 6.48008 17.3333 5.57341V4.66675C17.3333 4.13632 17.1226 3.62761 16.7475 3.25253C16.3725 2.87746 15.8638 2.66675 15.3333 2.66675C14.8029 2.66675 14.2942 2.87746 13.9191 3.25253C13.544 3.62761 13.3333 4.13632 13.3333 4.66675V5.57341C9.50667 6.48008 6.66667 9.90675 6.66667 14.0001V21.3334L4 24.0001V25.3334H26.6667V24.0001L24 21.3334ZM15.3333 29.3334C16.0406 29.3334 16.7189 29.0525 17.219 28.5524C17.719 28.0523 18 27.374 18 26.6667H12.6667C12.6667 27.374 12.9476 28.0523 13.4477 28.5524C13.9478 29.0525 14.6261 29.3334 15.3333 29.3334Z" fill="#090A0A"/>
</svg>
