<svg width="360" height="160" viewBox="0 0 360 160" fill="none" xmlns="http://www.w3.org/2000/svg">
<g clip-path="url(#clip0)">
<path d="M340.61 130.184C339.056 130.184 337.565 130.674 336.175 131.565C332.396 122.725 326.544 117.044 319.971 117.044C313.397 117.044 307.546 122.725 303.766 131.565C302.377 130.674 300.886 130.184 299.332 130.184C291.864 130.184 285.809 141.362 285.809 155.15H354.132C354.132 141.362 348.078 130.184 340.61 130.184Z" fill="#258CFF"/>
<path d="M138.488 116.056C136.881 116.077 135.327 116.432 134.053 117.069C130.274 110.586 124.422 106.42 117.849 106.42C111.275 106.42 105.424 110.586 101.644 117.069C100.371 116.432 98.8167 116.077 97.2097 116.056C89.7416 116.056 83.6875 124.253 83.6875 134.365H152.01C152.01 124.253 145.956 116.056 138.488 116.056Z" fill="#258CFF"/>
<path d="M360 160H0.600525C0.924347 141.048 81.2571 125.704 180.3 125.704C279.343 125.704 359.676 141.048 360 160Z" fill="#B3E0FF"/>
<path d="M45.9676 85.4855C71.3547 85.4855 91.9351 72.1286 91.9351 55.652C91.9351 39.1755 71.3547 25.8186 45.9676 25.8186C20.5804 25.8186 0 39.1755 0 55.652C0 72.1286 20.5804 85.4855 45.9676 85.4855Z" fill="#57BCFF"/>
<path d="M47.4503 141.062H44.8554V59.1239C44.8554 56.818 45.2911 54.5208 46.1529 52.2837C47.0146 54.5208 47.4503 56.818 47.4503 59.1239L47.4503 141.062Z" fill="#4B4B4B"/>
<path d="M46.2987 81.024L44.9319 79.5924L64.132 71.8707C65.464 71.335 67.0052 71.059 68.572 71.0757C67.8976 71.9937 66.8309 72.7665 65.4989 73.3022L46.2987 81.024Z" fill="#4B4B4B"/>
<path d="M45.394 73.2416L46.7609 71.81L33.5479 66.4961C32.5001 66.0747 31.2466 65.9241 30.0358 66.0743C30.3676 66.8448 31.1333 67.5063 32.1811 67.9277L45.394 73.2416Z" fill="#4B4B4B"/>
<path d="M45.394 105.962L46.7609 104.53L33.5479 99.2166C32.5001 98.7952 31.2466 98.6446 30.0358 98.7947C30.3676 99.5652 31.1333 100.227 32.1811 100.648L45.394 105.962Z" fill="#4B4B4B"/>
<path d="M289.724 84.7108C314.093 84.7108 333.849 71.8892 333.849 56.073C333.849 40.2568 314.093 27.4353 289.724 27.4353C265.354 27.4353 245.598 40.2568 245.598 56.073C245.598 71.8892 265.354 84.7108 289.724 84.7108Z" fill="#57BCFF"/>
<path d="M288.3 138.06H290.791V59.4059C290.791 57.1924 290.373 54.9873 289.546 52.8398C288.718 54.9873 288.3 57.1924 288.3 59.4059V138.06Z" fill="#4B4B4B"/>
<path d="M289.406 80.4279L290.718 79.0537L272.287 71.6415C271.008 71.1273 269.529 70.8624 268.025 70.8784C268.672 71.7596 269.696 72.5015 270.975 73.0157L289.406 80.4279Z" fill="#4B4B4B"/>
<path d="M290.274 72.9576L288.962 71.5835L301.645 66.4826C302.651 66.078 303.854 65.9335 305.017 66.0776C304.698 66.8172 303.963 67.4522 302.957 67.8568L290.274 72.9576Z" fill="#4B4B4B"/>
<path d="M290.274 104.367L288.962 102.992L301.645 97.8915C302.651 97.487 303.854 97.3424 305.017 97.4865C304.698 98.2262 303.963 98.8612 302.957 99.2657L290.274 104.367Z" fill="#4B4B4B"/>
<path d="M52.7658 157.125C52.368 157.126 51.9748 157.18 51.6109 157.284C50.6266 156.266 49.1029 155.612 47.391 155.612C45.6792 155.612 44.1554 156.266 43.1711 157.284C42.8073 157.18 42.414 157.126 42.0162 157.125C40.0714 157.125 38.4948 158.412 38.4948 160H56.2872C56.2872 158.412 54.7106 157.125 52.7658 157.125Z" fill="#57BCFF"/>
<path d="M163.079 155.158C162.659 155.164 162.254 155.258 161.924 155.426C160.939 153.712 159.416 152.61 157.704 152.61C155.992 152.61 154.468 153.712 153.484 155.426C153.154 155.258 152.748 155.164 152.329 155.158C150.384 155.158 148.808 157.326 148.808 160H166.6C166.6 157.326 165.023 155.158 163.079 155.158Z" fill="#57BCFF"/>
<path d="M316.449 155.158C316.03 155.164 315.625 155.258 315.294 155.426C314.31 153.712 312.786 152.61 311.074 152.61C309.363 152.61 307.839 153.712 306.855 155.426C306.524 155.258 306.119 155.164 305.7 155.158C303.755 155.158 302.178 157.326 302.178 160H319.971C319.971 157.326 318.394 155.158 316.449 155.158Z" fill="#57BCFF"/>
<path d="M221.111 111.333L220.545 113.076L219.839 114.819L217.578 135.545L225.35 135.912L228.883 113.259L228.318 112.067L221.111 111.333Z" fill="#2B2B2B"/>
<path d="M214.469 132.703L211.219 135.913C211.219 135.913 202.175 140.682 208.675 140.957C215.176 141.232 217.578 138.114 217.578 138.114C217.578 138.114 219.839 137.655 220.121 137.196C220.404 136.738 219.556 132.703 219.556 132.703H214.469Z" fill="#2B2B2B"/>
<path d="M218.143 135.179C218.143 135.179 214.893 140.498 215.317 141.415C215.741 142.332 216.447 142.332 216.306 143.158C216.165 143.983 215.741 145.909 221.111 146.001C226.481 146.092 223.937 141.415 223.937 141.415L223.23 135.179H218.143Z" fill="#2B2B2B"/>
<path d="M208.252 95.8342C208.252 95.8342 206.273 98.0353 206.556 99.411C206.838 100.787 210.936 115.552 210.936 115.552L214.187 133.528L221.393 133.161L218.567 116.561L219.274 103.355L220.545 113.076L228.883 113.259L233.829 99.411C233.829 99.411 230.155 95.5591 229.448 95.2839C228.741 95.0088 208.252 95.8342 208.252 95.8342Z" fill="#2B2B2B"/>
<path d="M218.072 68C221.428 68 224.149 66.2344 224.149 64.0564C224.149 61.8784 221.428 60.1128 218.072 60.1128C214.717 60.1128 211.996 61.8784 211.996 64.0564C211.996 66.2344 214.717 68 218.072 68Z" fill="#FFD9D9"/>
<path d="M216.306 66.5783L217.154 71.8059L226.48 70.8888L221.393 64.7441L216.306 66.5783Z" fill="#FFD9D9"/>
<path d="M225.774 69.3298C225.774 69.3298 220.969 71.6226 216.306 70.3387L209.241 81.986V96.5681C209.241 96.5681 219.839 98.5858 225.774 96.2013C225.774 96.2013 230.013 95.651 230.72 95.7427C231.426 95.8344 228.176 70.8889 228.176 70.8889L225.774 69.3298Z" fill="#80BCFF"/>
<path d="M221.393 69.8802L224.643 72.9067C225.276 73.663 225.476 74.54 225.209 75.3829C224.785 76.8502 224.361 96.0179 228.317 96.7515C232.274 97.4852 234.818 97.3935 234.818 97.3935C234.818 97.3935 231.285 86.3882 232.557 84.4623L236.513 72.9067L226.057 69.0548C226.057 69.0548 225.403 67.3123 224.317 68.2753C223.51 68.9269 222.517 69.4718 221.393 69.8802Z" fill="#258CFF"/>
<path d="M211.926 86.9385L216.752 69.3298L211.926 70.9807C211.926 70.9807 206.414 72.448 205.284 74.1906C204.154 75.9331 199.632 84.2788 199.632 84.2788C199.632 84.2788 200.762 89.323 205.001 87.2136C209.241 85.1042 208.251 84.0954 208.251 84.0954C208.251 84.0954 204.577 93.8168 205.143 94.092C205.708 94.3671 205.991 96.935 205.991 96.935L210.371 96.3848L211.926 86.9385Z" fill="#258CFF"/>
<path d="M206.414 77.1252L208.251 75.3827C208.251 75.3827 212.406 69.9718 215.416 71.806C218.426 73.6402 209.806 77.8589 209.806 77.8589L206.414 77.1252Z" fill="#FFD9D9"/>
<path d="M231.285 96.1094L230.154 97.0507L232.981 99.4107L234.252 97.7599L231.285 96.1094Z" fill="#FFD9D9"/>
<path d="M215.636 60.7897C215.013 60.7938 214.468 61.0443 213.956 61.2746C213.444 61.505 212.863 61.7348 212.244 61.6895C211.955 61.656 211.683 61.5781 211.449 61.4624C211.216 61.3468 211.028 61.1966 210.902 61.0244C210.656 60.6789 210.497 60.3098 210.431 59.9313L211.136 60.0926L210.565 59.6714L216.635 58.4745C218.472 58.1124 220.547 57.7634 222.23 58.363C223.099 58.7109 223.803 59.2087 224.262 59.8009C225.219 60.9356 225.707 62.2117 225.678 63.505C225.65 64.7984 225.107 66.0649 224.101 67.1816C223.17 67.1302 222.563 66.4974 222.412 65.899C222.261 65.3006 222.408 64.6807 222.222 64.0865C222.036 63.4923 221.337 62.8837 220.403 62.9024L219.911 63.5829C220.226 63.1474 218.357 62.084 217.912 61.8864C217.52 61.7414 217.155 61.5687 216.823 61.3714C216.437 61.1095 216.34 60.7851 215.636 60.7897Z" fill="#1B1B1B"/>
<path d="M206.98 76.1162L210.371 77.4919L206.98 86.663C206.98 86.663 201.61 90.9734 199.632 86.663C197.976 83.055 204.24 78.0976 206.326 76.5777C206.732 76.2818 206.98 76.1162 206.98 76.1162Z" fill="#258CFF"/>
<path d="M233.263 72.7231H236.513C236.513 72.7231 239.34 76.2999 239.622 78.2258C239.905 80.1517 239.905 87.7638 239.905 87.7638L234.394 98.4022L230.154 96.3846L233.687 90.0565C233.687 90.0565 233.263 88.6809 233.687 88.0389C234.111 87.3969 232.415 84.0953 232.133 83.9119C231.85 83.7285 233.263 72.7231 233.263 72.7231Z" fill="#258CFF"/>
<path d="M156.48 30.0884L194.718 30.0884V27.877L156.48 27.877V30.0884Z" fill="#258CFF"/>
<path d="M156.48 38.2346H194.718V36.0232H156.48V38.2346Z" fill="#258CFF"/>
<path d="M156.48 45.5325H194.718V43.3211H156.48V45.5325Z" fill="#258CFF"/>
<path d="M94.4015 50.2857L113.157 37.883H134.359V37.4211H112.86L112.755 37.4897L93.8951 49.961L94.4015 50.2857Z" fill="#258CFF"/>
<path d="M144.451 32.377C146.762 32.377 148.635 31.1613 148.635 29.6615C148.635 28.1618 146.762 26.946 144.451 26.946C142.141 26.946 140.267 28.1618 140.267 29.6615C140.267 31.1613 142.141 32.377 144.451 32.377Z" fill="#80BCFF"/>
<path d="M144.451 40.5235C146.762 40.5235 148.635 39.3077 148.635 37.808C148.635 36.3083 146.762 35.0925 144.451 35.0925C142.141 35.0925 140.267 36.3083 140.267 37.808C140.267 39.3077 142.141 40.5235 144.451 40.5235Z" fill="#80BCFF"/>
<path d="M144.451 47.8214C146.762 47.8214 148.635 46.6056 148.635 45.1059C148.635 43.6061 146.762 42.3904 144.451 42.3904C142.141 42.3904 140.267 43.6061 140.267 45.1059C140.267 46.6056 142.141 47.8214 144.451 47.8214Z" fill="#80BCFF"/>
<path d="M142.098 28.9826C142.098 28.412 142.359 27.8542 142.847 27.3797C143.336 26.9052 144.03 26.5354 144.842 26.317C145.654 26.0987 146.548 26.0415 147.411 26.1529C148.273 26.2642 149.065 26.539 149.687 26.9425C150.309 27.346 150.732 27.8601 150.904 28.4197C151.075 28.9794 150.987 29.5595 150.651 30.0867C150.314 30.6139 149.744 31.0645 149.013 31.3816C148.282 31.6986 147.423 31.8678 146.543 31.8678C145.365 31.867 144.235 31.5627 143.401 31.0218C142.568 30.4809 142.099 29.7475 142.098 28.9826ZM142.621 28.9826C142.621 29.4861 142.851 29.9783 143.282 30.397C143.713 30.8156 144.326 31.1419 145.042 31.3346C145.759 31.5273 146.548 31.5777 147.309 31.4795C148.07 31.3812 148.768 31.1388 149.317 30.7827C149.866 30.4267 150.239 29.9731 150.391 29.4793C150.542 28.9854 150.464 28.4736 150.167 28.0084C149.87 27.5432 149.368 27.1456 148.723 26.8659C148.078 26.5862 147.319 26.4368 146.543 26.4368C145.503 26.4376 144.506 26.7061 143.771 27.1833C143.036 27.6606 142.622 28.3077 142.621 28.9826Z" fill="#258CFF"/>
<path d="M142.098 37.1289C142.098 36.5582 142.359 36.0004 142.847 35.5259C143.336 35.0515 144.03 34.6817 144.842 34.4633C145.654 34.2449 146.548 34.1878 147.411 34.2991C148.273 34.4104 149.065 34.6852 149.687 35.0887C150.309 35.4922 150.732 36.0063 150.904 36.566C151.075 37.1257 150.987 37.7058 150.651 38.233C150.314 38.7602 149.744 39.2108 149.013 39.5278C148.282 39.8448 147.423 40.0141 146.543 40.0141C145.365 40.0132 144.235 39.709 143.401 39.1681C142.568 38.6272 142.099 37.8938 142.098 37.1289ZM142.621 37.1289C142.621 37.6324 142.851 38.1246 143.282 38.5432C143.713 38.9619 144.326 39.2882 145.042 39.4808C145.759 39.6735 146.548 39.7239 147.309 39.6257C148.07 39.5275 148.768 39.285 149.317 38.929C149.866 38.573 150.239 38.1193 150.391 37.6255C150.542 37.1317 150.464 36.6198 150.167 36.1546C149.87 35.6895 149.368 35.2919 148.723 35.0121C148.078 34.7324 147.319 34.5831 146.543 34.5831C145.503 34.5839 144.506 34.8523 143.771 35.3296C143.036 35.8068 142.622 36.4539 142.621 37.1289Z" fill="#258CFF"/>
<path d="M142.098 44.4267C142.098 43.8561 142.359 43.2983 142.847 42.8238C143.336 42.3493 144.03 41.9795 144.842 41.7611C145.654 41.5428 146.548 41.4856 147.411 41.5969C148.273 41.7083 149.065 41.9831 149.687 42.3866C150.309 42.7901 150.732 43.3042 150.904 43.8639C151.075 44.4235 150.987 45.0037 150.651 45.5309C150.314 46.0581 149.744 46.5087 149.013 46.8257C148.282 47.1427 147.423 47.312 146.543 47.312C145.365 47.3111 144.235 47.0068 143.401 46.4659C142.568 45.925 142.099 45.1917 142.098 44.4267ZM142.621 44.4267C142.621 44.9302 142.851 45.4224 143.282 45.8411C143.713 46.2597 144.326 46.586 145.042 46.7787C145.759 46.9714 146.548 47.0218 147.309 46.9236C148.07 46.8254 148.768 46.5829 149.317 46.2269C149.866 45.8708 150.239 45.4172 150.391 44.9234C150.542 44.4296 150.464 43.9177 150.167 43.4525C149.87 42.9873 149.368 42.5897 148.723 42.31C148.078 42.0303 147.319 41.8809 146.543 41.8809C145.503 41.8817 144.506 42.1502 143.771 42.6274C143.036 43.1047 142.622 43.7518 142.621 44.4267Z" fill="#258CFF"/>
<path d="M229.073 1.7793H190.836V3.9907H229.073V1.7793Z" fill="#258CFF"/>
<path d="M229.073 9.92578H190.836V12.1372H229.073V9.92578Z" fill="#258CFF"/>
<path d="M229.073 17.2236H190.836V19.435H229.073V17.2236Z" fill="#258CFF"/>
<path d="M287.594 26.498L272.397 11.7859H251.195V11.324H272.694L272.799 11.3926L288.1 26.1733L287.594 26.498Z" fill="#258CFF"/>
<path d="M241.103 6.2796C243.413 6.2796 245.287 5.06384 245.287 3.56412C245.287 2.0644 243.413 0.848633 241.103 0.848633C238.792 0.848633 236.919 2.0644 236.919 3.56412C236.919 5.06384 238.792 6.2796 241.103 6.2796Z" fill="#80BCFF"/>
<path d="M241.103 14.4261C243.413 14.4261 245.287 13.2103 245.287 11.7106C245.287 10.2109 243.413 8.99512 241.103 8.99512C238.792 8.99512 236.919 10.2109 236.919 11.7106C236.919 13.2103 238.792 14.4261 241.103 14.4261Z" fill="#80BCFF"/>
<path d="M241.103 21.7239C243.413 21.7239 245.287 20.5082 245.287 19.0084C245.287 17.5087 243.413 16.293 241.103 16.293C238.792 16.293 236.919 17.5087 236.919 19.0084C236.919 20.5082 238.792 21.7239 241.103 21.7239Z" fill="#80BCFF"/>
<path d="M239.011 5.77042C238.131 5.77042 237.272 5.6012 236.541 5.28417C235.81 4.96714 235.24 4.51653 234.903 3.98933C234.567 3.46213 234.479 2.88201 234.65 2.32233C234.822 1.76266 235.245 1.24856 235.867 0.845059C236.489 0.441555 237.281 0.166766 238.143 0.0554396C239.006 -0.0558867 239.899 0.00125044 240.712 0.219625C241.524 0.437999 242.218 0.807804 242.707 1.28227C243.195 1.75674 243.456 2.31457 243.456 2.88521C243.455 3.65015 242.986 4.38352 242.153 4.92441C241.319 5.46531 240.189 5.76956 239.011 5.77042ZM239.011 0.339436C238.235 0.339436 237.476 0.488744 236.831 0.768477C236.186 1.04821 235.684 1.4458 235.387 1.91098C235.09 2.37616 235.012 2.88803 235.163 3.38186C235.315 3.8757 235.688 4.32931 236.237 4.68534C236.786 5.04137 237.484 5.28383 238.245 5.38206C239.006 5.48029 239.795 5.42988 240.512 5.23719C241.228 5.04451 241.841 4.71821 242.272 4.29956C242.703 3.88091 242.933 3.38871 242.933 2.88521C242.932 2.21026 242.518 1.56318 241.783 1.08592C241.048 0.60866 240.051 0.340201 239.011 0.339436Z" fill="#258CFF"/>
<path d="M239.011 13.9169C238.131 13.9169 237.272 13.7477 236.541 13.4307C235.81 13.1136 235.24 12.663 234.903 12.1358C234.567 11.6086 234.479 11.0285 234.65 10.4688C234.822 9.90914 235.245 9.39505 235.867 8.99154C236.489 8.58804 237.281 8.31325 238.143 8.20192C239.006 8.0906 239.899 8.14774 240.712 8.36611C241.524 8.58448 242.218 8.95429 242.707 9.42876C243.195 9.90323 243.456 10.4611 243.456 11.0317C243.455 11.7966 242.986 12.53 242.153 13.0709C241.319 13.6118 240.189 13.916 239.011 13.9169ZM239.011 8.48592C238.235 8.48592 237.476 8.63523 236.831 8.91496C236.186 9.1947 235.684 9.59229 235.387 10.0575C235.09 10.5226 235.012 11.0345 235.163 11.5283C235.315 12.0222 235.688 12.4758 236.237 12.8318C236.786 13.1879 237.484 13.4303 238.245 13.5285C239.006 13.6268 239.795 13.5764 240.512 13.3837C241.228 13.191 241.841 12.8647 242.272 12.446C242.703 12.0274 242.933 11.5352 242.933 11.0317C242.932 10.3567 242.518 9.70966 241.783 9.23241C241.048 8.75515 240.051 8.48669 239.011 8.48592Z" fill="#258CFF"/>
<path d="M239.011 21.2147C238.131 21.2147 237.272 21.0455 236.541 20.7285C235.81 20.4115 235.24 19.9608 234.903 19.4336C234.567 18.9064 234.479 18.3263 234.65 17.7667C234.822 17.207 235.245 16.6929 235.867 16.2894C236.489 15.8859 237.281 15.6111 238.143 15.4998C239.006 15.3884 239.899 15.4456 240.712 15.664C241.524 15.8823 242.218 16.2521 242.707 16.7266C243.195 17.2011 243.456 17.7589 243.456 18.3295C243.455 19.0945 242.986 19.8278 242.153 20.3687C241.319 20.9096 240.189 21.2139 239.011 21.2147ZM239.011 15.7838C238.235 15.7838 237.476 15.9331 236.831 16.2128C236.186 16.4925 235.684 16.8901 235.387 17.3553C235.09 17.8205 235.012 18.3324 235.163 18.8262C235.315 19.32 235.688 19.7736 236.237 20.1297C236.786 20.4857 237.484 20.7281 238.245 20.8264C239.006 20.9246 239.795 20.8742 240.512 20.6815C241.228 20.4888 241.841 20.1625 242.272 19.7439C242.703 19.3252 242.933 18.833 242.933 18.3295C242.932 17.6546 242.518 17.0075 241.783 16.5303C241.048 16.053 240.051 15.7845 239.011 15.7838Z" fill="#258CFF"/>
<path d="M161.705 88.6523H188.411V87.108H161.705V88.6523Z" fill="#258CFF"/>
<path d="M161.705 94.3423H188.411V92.7978H161.705V94.3423Z" fill="#258CFF"/>
<path d="M161.705 99.4392H188.411V97.8947H161.705V99.4392Z" fill="#258CFF"/>
<path d="M118.348 102.759L131.447 94.0968H146.255V93.7742H131.24L131.167 93.822L117.995 102.532L118.348 102.759Z" fill="#258CFF"/>
<path d="M153.304 90.251C154.918 90.251 156.226 89.4019 156.226 88.3545C156.226 87.3071 154.918 86.458 153.304 86.458C151.69 86.458 150.382 87.3071 150.382 88.3545C150.382 89.4019 151.69 90.251 153.304 90.251Z" fill="#80BCFF"/>
<path d="M153.304 95.9408C154.918 95.9408 156.226 95.0917 156.226 94.0443C156.226 92.9968 154.918 92.1477 153.304 92.1477C151.69 92.1477 150.382 92.9968 150.382 94.0443C150.382 95.0917 151.69 95.9408 153.304 95.9408Z" fill="#80BCFF"/>
<path d="M153.304 101.038C154.918 101.038 156.226 100.189 156.226 99.1412C156.226 98.0937 154.918 97.2446 153.304 97.2446C151.69 97.2446 150.382 98.0937 150.382 99.1412C150.382 100.189 151.69 101.038 153.304 101.038Z" fill="#80BCFF"/>
<path d="M151.66 87.8803C151.66 87.4818 151.842 87.0922 152.184 86.7608C152.525 86.4294 153.01 86.1711 153.577 86.0186C154.144 85.8661 154.769 85.8262 155.371 85.904C155.973 85.9817 156.526 86.1736 156.961 86.4554C157.395 86.7372 157.691 87.0963 157.81 87.4872C157.93 87.8781 157.869 88.2832 157.634 88.6514C157.399 89.0196 157.001 89.3343 156.49 89.5558C155.98 89.7772 155.379 89.8954 154.765 89.8954C153.942 89.8948 153.153 89.6823 152.571 89.3045C151.989 88.9267 151.661 88.4145 151.66 87.8803ZM152.026 87.8803C152.026 88.232 152.186 88.5757 152.487 88.8681C152.788 89.1605 153.216 89.3884 153.717 89.5229C154.217 89.6575 154.768 89.6927 155.3 89.6241C155.831 89.5555 156.319 89.3862 156.702 89.1375C157.085 88.8889 157.346 88.5721 157.452 88.2272C157.558 87.8823 157.504 87.5248 157.296 87.1999C157.089 86.875 156.738 86.5973 156.287 86.402C155.837 86.2066 155.307 86.1023 154.765 86.1023C154.039 86.1028 153.343 86.2903 152.829 86.6237C152.315 86.957 152.026 87.4089 152.026 87.8803Z" fill="#258CFF"/>
<path d="M151.66 93.5698C151.66 93.1713 151.842 92.7817 152.184 92.4503C152.525 92.1189 153.01 91.8606 153.577 91.7081C154.144 91.5556 154.769 91.5157 155.371 91.5934C155.973 91.6712 156.526 91.8631 156.961 92.1449C157.395 92.4267 157.691 92.7858 157.81 93.1767C157.93 93.5676 157.869 93.9727 157.634 94.341C157.399 94.7092 157.001 95.0239 156.49 95.2453C155.98 95.4667 155.379 95.5849 154.765 95.5849C153.942 95.5843 153.153 95.3718 152.571 94.9941C151.989 94.6163 151.661 94.1041 151.66 93.5698ZM152.026 93.5698C152.026 93.9215 152.186 94.2652 152.487 94.5576C152.788 94.85 153.216 95.0779 153.717 95.2125C154.217 95.3471 154.768 95.3823 155.3 95.3137C155.831 95.2451 156.319 95.0757 156.702 94.8271C157.085 94.5784 157.346 94.2616 157.452 93.9167C157.558 93.5718 157.504 93.2143 157.296 92.8894C157.089 92.5645 156.738 92.2868 156.287 92.0914C155.837 91.896 155.307 91.7918 154.765 91.7918C154.039 91.7923 153.343 91.9798 152.829 92.3131C152.315 92.6465 152.026 93.0984 152.026 93.5698Z" fill="#258CFF"/>
<path d="M151.66 98.6672C151.66 98.2686 151.842 97.879 152.184 97.5477C152.525 97.2163 153.01 96.958 153.577 96.8055C154.144 96.653 154.769 96.6131 155.371 96.6908C155.973 96.7686 156.526 96.9605 156.961 97.2423C157.395 97.5241 157.691 97.8832 157.81 98.2741C157.93 98.6649 157.869 99.0701 157.634 99.4383C157.399 99.8065 157.001 100.121 156.49 100.343C155.98 100.564 155.379 100.682 154.765 100.682C153.942 100.682 153.153 100.469 152.571 100.091C151.989 99.7136 151.661 99.2014 151.66 98.6672ZM152.026 98.6672C152.026 99.0188 152.186 99.3626 152.487 99.655C152.788 99.9474 153.216 100.175 153.717 100.31C154.217 100.444 154.768 100.48 155.3 100.411C155.831 100.342 156.319 100.173 156.702 99.9244C157.085 99.6758 157.346 99.359 157.452 99.0141C157.558 98.6692 157.504 98.3117 157.296 97.9868C157.089 97.6619 156.738 97.3842 156.287 97.1888C155.837 96.9934 155.307 96.8892 154.765 96.8892C154.039 96.8897 153.343 97.0772 152.829 97.4105C152.315 97.7439 152.026 98.1958 152.026 98.6672Z" fill="#258CFF"/>
</g>
<defs>
<clipPath id="clip0">
<rect width="360" height="160" fill="white"/>
</clipPath>
</defs>
</svg>
