<svg width="20" height="20" viewBox="0 0 20 20" fill="none" xmlns="http://www.w3.org/2000/svg">
<path d="M9.82917 17.4998H4.16667C3.72464 17.4998 3.30072 17.3242 2.98816 17.0117C2.67559 16.6991 2.5 16.2752 2.5 15.8332V5.83317C2.5 5.39114 2.67559 4.96722 2.98816 4.65466C3.30072 4.3421 3.72464 4.1665 4.16667 4.1665H14.1667C14.6087 4.1665 15.0326 4.3421 15.3452 4.65466C15.6577 4.96722 15.8333 5.39114 15.8333 5.83317V9.1665" stroke="white" stroke-width="2" stroke-linecap="round" stroke-linejoin="round"/>
<path d="M14.9998 18.3332C16.8408 18.3332 18.3332 16.8408 18.3332 14.9998C18.3332 13.1589 16.8408 11.6665 14.9998 11.6665C13.1589 11.6665 11.6665 13.1589 11.6665 14.9998C11.6665 16.8408 13.1589 18.3332 14.9998 18.3332Z" stroke="white" stroke-width="2" stroke-linecap="round" stroke-linejoin="round"/>
<path d="M12.5 2.5V5.83333" stroke="white" stroke-width="2" stroke-linecap="round" stroke-linejoin="round"/>
<path d="M5.8335 2.5V5.83333" stroke="white" stroke-width="2" stroke-linecap="round" stroke-linejoin="round"/>
<path d="M2.5 9.1665H15.8333" stroke="white" stroke-width="2" stroke-linecap="round" stroke-linejoin="round"/>
<path d="M15 13.7466V14.9999L15.8333 15.8332" stroke="white" stroke-width="2" stroke-linecap="round" stroke-linejoin="round"/>
</svg>
