<svg width="30" height="30" viewBox="0 0 30 30" fill="none" xmlns="http://www.w3.org/2000/svg">
<path d="M21.875 14.9999C23.6984 14.9999 25.447 15.7243 26.7364 17.0136C28.0257 18.3029 28.75 20.0516 28.75 21.8749C28.75 23.6983 28.0257 25.447 26.7364 26.7363C25.447 28.0256 23.6984 28.7499 21.875 28.7499C20.0516 28.7499 18.303 28.0256 17.0136 26.7363C15.7243 25.447 15 23.6983 15 21.8749C15 20.0516 15.7243 18.3029 17.0136 17.0136C18.303 15.7243 20.0516 14.9999 21.875 14.9999ZM21.875 17.4999L21.7625 17.5087C21.6376 17.5315 21.5226 17.5918 21.4329 17.6816C21.3431 17.7713 21.2828 17.8863 21.26 18.0112L21.25 18.1249V21.2499H18.1225L18.01 21.2612C17.8851 21.284 17.7701 21.3443 17.6804 21.4341C17.5906 21.5238 17.5303 21.6388 17.5075 21.7637L17.4975 21.8762L17.5075 21.9887C17.5303 22.1136 17.5906 22.2285 17.6804 22.3183C17.7701 22.4081 17.8851 22.4684 18.01 22.4912L18.1225 22.5012H21.25V25.6299L21.26 25.7424C21.2828 25.8673 21.3431 25.9823 21.4329 26.0721C21.5226 26.1618 21.6376 26.2221 21.7625 26.2449L21.875 26.2549L21.9875 26.2449C22.1124 26.2221 22.2274 26.1618 22.3171 26.0721C22.4069 25.9823 22.4672 25.8673 22.49 25.7424L22.5 25.6299V22.4999H25.63L25.7425 22.4912C25.8674 22.4684 25.9824 22.4081 26.0721 22.3183C26.1619 22.2285 26.2222 22.1136 26.245 21.9887L26.255 21.8762L26.245 21.7637C26.2221 21.6386 26.1616 21.5235 26.0716 21.4338C25.9816 21.344 25.8664 21.2838 25.7413 21.2612L25.6287 21.2512H22.5V18.1262L22.49 18.0137C22.4674 17.8886 22.4072 17.7733 22.3174 17.6833C22.2276 17.5933 22.1126 17.5328 21.9875 17.5099L21.875 17.4999ZM17.4062 3.12744C17.8963 3.1274 18.3779 3.25541 18.8032 3.49878C19.2286 3.74215 19.583 4.09244 19.8312 4.51494L20.8488 6.24994H23.4375C23.971 6.24994 24.4993 6.35502 24.9922 6.55918C25.485 6.76334 25.9329 7.06258 26.3101 7.43982C26.6874 7.81706 26.9866 8.2649 27.1908 8.75779C27.3949 9.25068 27.5 9.77895 27.5 10.3124V16.0124C26.9425 15.4771 26.3115 15.0238 25.6262 14.6662L25.625 10.3124C25.625 9.73228 25.3945 9.17588 24.9843 8.76565C24.5741 8.35541 24.0177 8.12494 23.4375 8.12494H20.3125C20.1491 8.12503 19.9885 8.08239 19.8466 8.00126C19.7047 7.92014 19.5865 7.80334 19.5037 7.66244L18.2137 5.46619C18.1311 5.32548 18.0131 5.2088 17.8714 5.12768C17.7298 5.04656 17.5695 5.00382 17.4062 5.00369H12.6525C12.5157 5.0038 12.3806 5.03385 12.2566 5.09172C12.1327 5.14959 12.0229 5.23389 11.935 5.33869L11.8538 5.45119L10.4875 7.67619C10.4037 7.81284 10.2863 7.92573 10.1465 8.00408C10.0066 8.08242 9.84904 8.12361 9.68875 8.12369H6.56375C6.27627 8.12353 5.99158 8.18003 5.72596 8.28997C5.46033 8.3999 5.21898 8.56112 5.0157 8.7644C4.81243 8.96767 4.65121 9.20902 4.54127 9.47465C4.43134 9.74027 4.37484 10.025 4.375 10.3124V22.1874C4.375 23.3949 5.355 24.3749 6.5625 24.3749H14.1412C14.3575 25.0412 14.6562 25.6712 15.0275 26.2499H6.5625C5.48506 26.2499 4.45175 25.8219 3.68988 25.0601C2.92801 24.2982 2.5 23.2649 2.5 22.1874V10.3124C2.5 9.235 2.92801 8.20169 3.68988 7.43982C4.45175 6.67795 5.48506 6.24994 6.5625 6.24994H9.1625L10.2562 4.46994C10.5077 4.06022 10.86 3.72179 11.2796 3.48698C11.6991 3.25218 12.1718 3.12882 12.6525 3.12869H17.4062V3.12744ZM15 9.99994C16.1892 9.99986 17.3478 10.3765 18.3097 11.0758C19.2715 11.7751 19.9871 12.7612 20.3538 13.8924C19.7288 14.0112 19.1287 14.2012 18.5625 14.4537C18.2855 13.6049 17.7146 12.8828 16.9526 12.4175C16.1906 11.9521 15.2875 11.774 14.4059 11.9152C13.5242 12.0564 12.7219 12.5077 12.1434 13.1877C11.5649 13.8678 11.2481 14.7321 11.25 15.6249C11.25 17.4124 12.5 18.9062 14.1725 19.2837C13.9723 19.8782 13.8423 20.494 13.785 21.1187C12.4324 20.8184 11.2381 20.0295 10.4311 18.9032C9.62404 17.7769 9.261 16.3924 9.41152 15.015C9.56203 13.6376 10.2155 12.3642 11.2467 11.4388C12.278 10.5134 13.6144 10.001 15 9.99994Z" fill="#090A0A"/>
</svg>
