<svg width="31" height="30" viewBox="0 0 31 30" fill="none" xmlns="http://www.w3.org/2000/svg">
<path d="M20.7614 6.76003L23.4089 9.40628L20.7614 6.76003ZM22.4639 4.42878L15.3052 11.5875C14.9353 11.9569 14.683 12.4275 14.5802 12.94L13.9189 16.25L17.2289 15.5875C17.7414 15.485 18.2114 15.2338 18.5814 14.8638L25.7402 7.70503C25.9553 7.48991 26.126 7.23452 26.2424 6.95345C26.3588 6.67238 26.4187 6.37113 26.4187 6.0669C26.4187 5.76267 26.3588 5.46143 26.2424 5.18036C26.126 4.89929 25.9553 4.6439 25.7402 4.42878C25.5251 4.21366 25.2697 4.04301 24.9886 3.92659C24.7075 3.81017 24.4063 3.75024 24.1021 3.75024C23.7978 3.75024 23.4966 3.81017 23.2155 3.92659C22.9345 4.04301 22.6791 4.21366 22.4639 4.42878V4.42878Z" stroke="#090A0A" stroke-width="2" stroke-linecap="round" stroke-linejoin="round"/>
<path d="M23.9189 18.75V22.5C23.9189 23.163 23.6556 23.7989 23.1867 24.2678C22.7179 24.7366 22.082 25 21.4189 25H7.66895C7.0059 25 6.37002 24.7366 5.90118 24.2678C5.43234 23.7989 5.16895 23.163 5.16895 22.5V8.75C5.16895 8.08696 5.43234 7.45107 5.90118 6.98223C6.37002 6.51339 7.0059 6.25 7.66895 6.25H11.4189" stroke="#090A0A" stroke-width="2" stroke-linecap="round" stroke-linejoin="round"/>
</svg>
