<svg width="20" height="21" viewBox="0 0 20 21" fill="none" xmlns="http://www.w3.org/2000/svg">
<path d="M19.7705 10.2288C19.7705 9.57049 19.7135 8.94549 19.6156 8.33716H10.4005V12.0955H15.6768C15.4403 13.3288 14.7471 14.3705 13.7196 15.0788V17.5788H16.8674C18.7104 15.8372 19.7705 13.2705 19.7705 10.2288Z" fill="#4285F4"/>
<path d="M10.4006 20.004C13.0428 20.004 15.2528 19.104 16.8674 17.579L13.7196 15.079C12.8389 15.679 11.7217 16.0457 10.4006 16.0457C7.84807 16.0457 5.68701 14.2874 4.91229 11.9124H1.66663V14.4874C3.27315 17.754 6.5759 20.004 10.4006 20.004Z" fill="#34A853"/>
<path d="M4.91228 11.9122C4.70841 11.3122 4.60239 10.6705 4.60239 10.0038C4.60239 9.33717 4.71656 8.69551 4.91228 8.09551V5.52051H1.66661C0.997906 6.87051 0.614624 8.38717 0.614624 10.0038C0.614624 11.6205 0.997906 13.1372 1.66661 14.4872L4.91228 11.9122Z" fill="#FBBC05"/>
<path d="M10.4006 3.96224C11.844 3.96224 13.1325 4.47058 14.1518 5.46224L16.9408 2.61224C15.2528 0.995574 13.0428 0.00390625 10.4006 0.00390625C6.5759 0.00390625 3.27315 2.25391 1.66663 5.52058L4.91229 8.09558C5.68701 5.72058 7.84807 3.96224 10.4006 3.96224Z" fill="#EA4335"/>
</svg>
