<svg width="220" height="54" viewBox="0 0 220 54" fill="none" xmlns="http://www.w3.org/2000/svg">
<rect x="9.99371" y="28.5396" width="8.56606" height="14.9436" rx="4" fill="url(#paint0_linear)"/>
<rect opacity="0.4" y="32.7688" width="8.56606" height="10.7143" rx="4" fill="url(#paint1_linear)"/>
<rect x="110.673" y="9.3667" width="8.56606" height="34.1166" rx="4" fill="url(#paint2_linear)"/>
<rect opacity="0.4" x="100.679" y="18.9531" width="8.56606" height="24.5301" rx="4" fill="url(#paint3_linear)"/>
<rect x="43.5535" y="15.5696" width="8.56606" height="27.9136" rx="4" fill="url(#paint4_linear)"/>
<rect opacity="0.4" x="33.5598" y="23.4644" width="8.56606" height="20.0188" rx="4" fill="url(#paint5_linear)"/>
<rect x="144.233" y="32.769" width="8.56606" height="10.7143" rx="4" fill="url(#paint6_linear)"/>
<rect opacity="0.4" x="134.239" y="35.7292" width="8.56606" height="7.75378" rx="3.87689" fill="url(#paint7_linear)"/>
<rect x="77.1133" y="0.907715" width="8.56606" height="42.5753" rx="4" fill="url(#paint8_linear)"/>
<rect opacity="0.4" x="67.1196" y="12.8911" width="8.56606" height="30.5922" rx="4" fill="url(#paint9_linear)"/>
<rect x="177.793" y="2.0354" width="8.56606" height="41.4475" rx="4" fill="url(#paint10_linear)"/>
<rect opacity="0.4" x="167.799" y="13.7371" width="8.56606" height="29.7463" rx="4" fill="url(#paint11_linear)"/>
<rect x="211.352" y="14.3008" width="8.56606" height="29.1824" rx="4" fill="url(#paint12_linear)"/>
<rect opacity="0.4" x="201.359" y="22.4778" width="8.56606" height="21.0057" rx="4" fill="url(#paint13_linear)"/>
<mask id="path-15-inside-1" fill="white">
<ellipse cx="114.928" cy="52.0264" rx="5.11549" ry="1.97369"/>
</mask>
<ellipse cx="114.928" cy="52.0264" rx="5.11549" ry="1.97369" fill="url(#paint14_linear)"/>
<path d="M116.043 52.0264C116.043 50.7891 116.709 50.0556 116.946 49.8395C117.181 49.6251 117.299 49.6156 117.105 49.6902C116.745 49.8291 115.977 50.0001 114.928 50.0001V58.0001C116.704 58.0001 118.494 57.7293 119.985 57.1539C120.718 56.8713 121.584 56.4365 122.337 55.7499C123.092 55.0615 124.043 53.8087 124.043 52.0264H116.043ZM114.928 50.0001C113.879 50.0001 113.111 49.8291 112.751 49.6902C112.557 49.6156 112.675 49.6251 112.91 49.8395C113.147 50.0556 113.812 50.7891 113.812 52.0264H105.812C105.812 53.8087 106.764 55.0615 107.519 55.7499C108.272 56.4365 109.138 56.8713 109.871 57.1539C111.362 57.7293 113.152 58.0001 114.928 58.0001V50.0001ZM113.812 52.0264C113.812 53.2637 113.147 53.9973 112.91 54.2134C112.675 54.4278 112.557 54.4372 112.751 54.3627C113.111 54.2238 113.879 54.0527 114.928 54.0527V46.0527C113.152 46.0527 111.362 46.3235 109.871 46.8989C109.138 47.1816 108.272 47.6163 107.519 48.303C106.764 48.9913 105.812 50.2441 105.812 52.0264H113.812ZM114.928 54.0527C115.977 54.0527 116.745 54.2238 117.105 54.3627C117.299 54.4372 117.181 54.4278 116.946 54.2134C116.709 53.9973 116.043 53.2637 116.043 52.0264H124.043C124.043 50.2441 123.092 48.9913 122.337 48.303C121.584 47.6163 120.718 47.1816 119.985 46.8989C118.494 46.3235 116.704 46.0527 114.928 46.0527V54.0527Z" fill="white" mask="url(#path-15-inside-1)"/>
<defs>
<linearGradient id="paint0_linear" x1="14.2767" y1="28.5396" x2="14.2767" y2="43.4832" gradientUnits="userSpaceOnUse">
<stop stop-color="#57BCFF"/>
<stop offset="1" stop-color="#385F99"/>
</linearGradient>
<linearGradient id="paint1_linear" x1="4.28303" y1="32.7688" x2="4.28303" y2="43.4831" gradientUnits="userSpaceOnUse">
<stop stop-color="#CCEBFF"/>
<stop offset="1" stop-color="#57BCFF"/>
</linearGradient>
<linearGradient id="paint2_linear" x1="114.956" y1="9.3667" x2="114.956" y2="43.4833" gradientUnits="userSpaceOnUse">
<stop stop-color="#57BCFF"/>
<stop offset="1" stop-color="#385F99"/>
</linearGradient>
<linearGradient id="paint3_linear" x1="104.962" y1="18.9531" x2="104.962" y2="43.4833" gradientUnits="userSpaceOnUse">
<stop stop-color="#B3E0FF"/>
<stop offset="1" stop-color="#57BCFF"/>
</linearGradient>
<linearGradient id="paint4_linear" x1="47.8365" y1="15.5696" x2="47.8365" y2="43.4832" gradientUnits="userSpaceOnUse">
<stop stop-color="#57BCFF"/>
<stop offset="1" stop-color="#385F99"/>
</linearGradient>
<linearGradient id="paint5_linear" x1="37.8428" y1="23.4644" x2="37.8428" y2="43.4832" gradientUnits="userSpaceOnUse">
<stop stop-color="#B3E0FF"/>
<stop offset="1" stop-color="#57BCFF"/>
</linearGradient>
<linearGradient id="paint6_linear" x1="148.516" y1="32.769" x2="148.516" y2="43.4834" gradientUnits="userSpaceOnUse">
<stop stop-color="#57BCFF"/>
<stop offset="1" stop-color="#385F99"/>
</linearGradient>
<linearGradient id="paint7_linear" x1="138.522" y1="35.7292" x2="138.522" y2="43.483" gradientUnits="userSpaceOnUse">
<stop stop-color="#B3E0FF"/>
<stop offset="1" stop-color="#57BCFF"/>
</linearGradient>
<linearGradient id="paint8_linear" x1="81.3964" y1="0.907715" x2="81.3964" y2="43.483" gradientUnits="userSpaceOnUse">
<stop stop-color="#57BCFF"/>
<stop offset="1" stop-color="#385F99"/>
</linearGradient>
<linearGradient id="paint9_linear" x1="71.4026" y1="12.8911" x2="71.4026" y2="43.4833" gradientUnits="userSpaceOnUse">
<stop stop-color="#B3E0FF"/>
<stop offset="1" stop-color="#57BCFF"/>
</linearGradient>
<linearGradient id="paint10_linear" x1="182.076" y1="2.0354" x2="182.076" y2="43.4829" gradientUnits="userSpaceOnUse">
<stop stop-color="#57BCFF"/>
<stop offset="1" stop-color="#385F99"/>
</linearGradient>
<linearGradient id="paint11_linear" x1="172.082" y1="13.7371" x2="172.082" y2="43.4834" gradientUnits="userSpaceOnUse">
<stop stop-color="#B3E0FF"/>
<stop offset="1" stop-color="#57BCFF"/>
</linearGradient>
<linearGradient id="paint12_linear" x1="215.635" y1="14.3008" x2="215.635" y2="43.4832" gradientUnits="userSpaceOnUse">
<stop stop-color="#57BCFF"/>
<stop offset="1" stop-color="#385F99"/>
</linearGradient>
<linearGradient id="paint13_linear" x1="205.642" y1="22.4778" x2="205.642" y2="43.4835" gradientUnits="userSpaceOnUse">
<stop stop-color="#B3E0FF"/>
<stop offset="1" stop-color="#57BCFF"/>
</linearGradient>
<linearGradient id="paint14_linear" x1="114.928" y1="50.0527" x2="114.928" y2="54.0001" gradientUnits="userSpaceOnUse">
<stop stop-color="#FF6859"/>
<stop offset="1" stop-color="#EA5455"/>
</linearGradient>
</defs>
</svg>
