<svg width="30" height="30" viewBox="0 0 30 30" fill="none" xmlns="http://www.w3.org/2000/svg">
<path d="M13.4914 3.74764C13.9193 3.40437 14.4515 3.21729 15 3.21729C15.5486 3.21729 16.0807 3.40437 16.5086 3.74764L24.8121 10.4087C25.0937 10.6346 25.3209 10.9208 25.4771 11.2463C25.6332 11.5717 25.7143 11.9281 25.7143 12.2891V24.3748C25.7143 25.0141 25.4603 25.6273 25.0082 26.0794C24.5561 26.5315 23.9429 26.7855 23.3036 26.7855H20.625C19.9856 26.7855 19.3725 26.5315 18.9204 26.0794C18.4683 25.6273 18.2143 25.0141 18.2143 24.3748V17.4105C18.2143 17.1974 18.1296 16.993 17.9789 16.8423C17.8282 16.6916 17.6238 16.6069 17.4107 16.6069H12.5893C12.3762 16.6069 12.1718 16.6916 12.0211 16.8423C11.8704 16.993 11.7857 17.1974 11.7857 17.4105V24.3748C11.7857 25.0141 11.5317 25.6273 11.0796 26.0794C10.6275 26.5315 10.0144 26.7855 9.37501 26.7855H6.69643C6.05707 26.7855 5.4439 26.5315 4.9918 26.0794C4.53971 25.6273 4.28572 25.0141 4.28572 24.3748V12.2891C4.28572 11.5573 4.61786 10.8662 5.18786 10.4087L13.4914 3.74764Z" fill="#A5A5A5"/>
</svg>
