<svg width="30" height="30" viewBox="0 0 30 30" fill="none" xmlns="http://www.w3.org/2000/svg">
<path d="M25.775 5.27495C25.6298 5.15748 25.4601 5.07404 25.2784 5.03078C25.0966 4.98751 24.9076 4.98552 24.725 5.02495L15 7.21245L5.27498 4.99995C5.08951 4.95806 4.89693 4.95904 4.71189 5.0028C4.52686 5.04656 4.35425 5.13196 4.20719 5.2525C4.06014 5.37303 3.94252 5.52553 3.86329 5.69837C3.78406 5.87122 3.74531 6.05987 3.74998 6.24995V21.5C3.74292 21.7889 3.83621 22.0714 4.01398 22.2993C4.19175 22.5272 4.443 22.6864 4.72498 22.75L14.725 25H15.275L25.275 22.75C25.557 22.6864 25.8082 22.5272 25.986 22.2993C26.1637 22.0714 26.257 21.7889 26.25 21.5V6.24995C26.2491 6.06219 26.206 5.87704 26.1237 5.70825C26.0415 5.53946 25.9223 5.39136 25.775 5.27495ZM6.24998 7.81245L13.75 9.49995V22.1875L6.24998 20.4999V7.81245ZM23.75 20.4999L16.25 22.1875V9.49995L23.75 7.81245V20.4999Z" fill="#A5A5A5"/>
</svg>
