<svg width="30" height="30" viewBox="0 0 30 30" fill="none" xmlns="http://www.w3.org/2000/svg">
<path d="M25.1761 21.3216C24.6494 20.1989 23.8849 19.1792 22.9254 18.3191C21.9687 17.4566 20.8355 16.7689 19.5883 16.294C19.5771 16.2889 19.5659 16.2864 19.5548 16.2814C21.2945 15.1508 22.4255 13.309 22.4255 11.2312C22.4255 7.78894 19.3258 5 15.5 5C11.6742 5 8.57451 7.78894 8.57451 11.2312C8.57451 13.309 9.70549 15.1508 11.4452 16.2839C11.4341 16.2889 11.4229 16.2915 11.4117 16.2965C10.1607 16.7714 9.03807 17.4523 8.07465 18.3216C7.116 19.1823 6.35167 20.2019 5.82387 21.3241C5.30536 22.4227 5.02571 23.6006 5.00007 24.794C4.99932 24.8208 5.00455 24.8475 5.01545 24.8724C5.02634 24.8974 5.04268 24.9202 5.06349 24.9394C5.08431 24.9586 5.10919 24.9738 5.13667 24.9842C5.16414 24.9946 5.19366 25 5.22347 25H6.89899C7.02186 25 7.1196 24.9121 7.1224 24.804C7.17825 22.8643 8.04393 21.0477 9.57424 19.6709C11.1576 18.2462 13.2604 17.4623 15.5 17.4623C17.7396 17.4623 19.8424 18.2462 21.4258 19.6709C22.9561 21.0477 23.8218 22.8643 23.8776 24.804C23.8804 24.9146 23.9781 25 24.101 25H25.7765C25.8063 25 25.8359 24.9946 25.8633 24.9842C25.8908 24.9738 25.9157 24.9586 25.9365 24.9394C25.9573 24.9202 25.9737 24.8974 25.9846 24.8724C25.9954 24.8475 26.0007 24.8208 25.9999 24.794C25.972 23.593 25.6955 22.4246 25.1761 21.3216ZM15.5 15.5528C14.2182 15.5528 13.0119 15.103 12.1043 14.2864C11.1967 13.4698 10.6968 12.3844 10.6968 11.2312C10.6968 10.0779 11.1967 8.99246 12.1043 8.17588C13.0119 7.3593 14.2182 6.90955 15.5 6.90955C16.7818 6.90955 17.9881 7.3593 18.8957 8.17588C19.8033 8.99246 20.3032 10.0779 20.3032 11.2312C20.3032 12.3844 19.8033 13.4698 18.8957 14.2864C17.9881 15.103 16.7818 15.5528 15.5 15.5528Z" fill="#090A0A"/>
</svg>
