<svg width="280" height="280" viewBox="0 0 280 280" fill="none" xmlns="http://www.w3.org/2000/svg">
<g clip-path="url(#clip0)">
<path d="M254.234 272.953C252.841 275.211 251.115 277.142 249.142 278.647C248.722 278.968 248.292 279.27 247.853 279.549H237.539C237.662 279.252 237.782 278.95 237.898 278.647C241.096 270.526 242.099 261.404 240.766 252.561C239.433 243.719 235.83 235.602 230.465 229.35C236.699 231.668 242.462 236.185 246.231 242.592C248.062 245.712 249.365 249.236 250.064 252.962C250.687 245.51 249.697 237.991 247.19 231.136C252.252 236.091 256.194 242.876 257.696 250.514C259.198 258.156 258.108 266.637 254.234 272.953Z" fill="#CCEBFF"/>
<path d="M42.2166 7.42676C41.9057 7.42743 41.6078 7.57648 41.3882 7.84121C41.1686 8.10594 41.0453 8.46471 41.0453 8.83875C41.0453 9.2128 41.1686 9.57157 41.3882 9.83629C41.6078 10.101 41.9057 10.2501 42.2166 10.2507H127.888C128.199 10.2501 128.496 10.101 128.716 9.83629C128.936 9.57157 129.059 9.2128 129.059 8.83875C129.059 8.46471 128.936 8.10594 128.716 7.84121C128.496 7.57648 128.199 7.42743 127.888 7.42676H42.2166Z" fill="#80BCFF"/>
<path d="M42.2166 15.8989C41.9054 15.8981 41.6067 16.0461 41.3862 16.3104C41.1657 16.5746 41.0414 16.9335 41.0408 17.3079C41.0401 17.6824 41.1631 18.0419 41.3827 18.3073C41.6023 18.5726 41.9005 18.7221 42.2117 18.7229H96.3738C96.5281 18.7232 96.6809 18.687 96.8235 18.6162C96.9661 18.5453 97.0957 18.4414 97.2049 18.3103C97.3141 18.1791 97.4007 18.0233 97.4598 17.8519C97.5189 17.6804 97.5493 17.4966 97.5493 17.3109C97.5493 17.1253 97.5189 16.9415 97.4598 16.77C97.4007 16.5985 97.3141 16.4427 97.2049 16.3116C97.0957 16.1805 96.9661 16.0765 96.8235 16.0057C96.6809 15.9349 96.5281 15.8986 96.3738 15.8989H42.2166Z" fill="#80BCFF"/>
<path d="M42.2166 58.3743C41.9057 58.3749 41.6078 58.524 41.3882 58.7887C41.1686 59.0534 41.0453 59.4122 41.0453 59.7863C41.0453 60.1603 41.1686 60.5191 41.3882 60.7838C41.6078 61.0485 41.9057 61.1976 42.2166 61.1983H127.888C128.199 61.1976 128.496 61.0485 128.716 60.7838C128.936 60.5191 129.059 60.1603 129.059 59.7863C129.059 59.4122 128.936 59.0534 128.716 58.7887C128.496 58.524 128.199 58.3749 127.888 58.3743H42.2166Z" fill="#CCEBFF"/>
<path d="M42.2166 66.8462C41.9054 66.8454 41.6067 66.9934 41.3862 67.2576C41.1657 67.5219 41.0414 67.8807 41.0408 68.2552C41.0401 68.6297 41.1631 68.9892 41.3827 69.2545C41.6023 69.5199 41.9005 69.6694 42.2117 69.6702H96.3738C96.5281 69.6705 96.6809 69.6342 96.8235 69.5634C96.9661 69.4926 97.0957 69.3887 97.2049 69.2575C97.3141 69.1264 97.4007 68.9706 97.4598 68.7991C97.5189 68.6276 97.5493 68.4438 97.5493 68.2582C97.5493 68.0725 97.5189 67.8887 97.4598 67.7173C97.4007 67.5458 97.3141 67.39 97.2049 67.2589C97.0957 67.1277 96.9661 67.0238 96.8235 66.953C96.6809 66.8821 96.5281 66.8459 96.3738 66.8462H42.2166Z" fill="#CCEBFF"/>
<path d="M42.2166 109.322C41.9057 109.322 41.6078 109.471 41.3882 109.736C41.1686 110.001 41.0453 110.359 41.0453 110.734C41.0453 111.108 41.1686 111.466 41.3882 111.731C41.6078 111.996 41.9057 112.145 42.2166 112.146H127.888C128.199 112.145 128.496 111.996 128.716 111.731C128.936 111.466 129.059 111.108 129.059 110.734C129.059 110.359 128.936 110.001 128.716 109.736C128.496 109.471 128.199 109.322 127.888 109.322H42.2166Z" fill="#CCEBFF"/>
<path d="M42.2166 117.793C41.9054 117.792 41.6067 117.94 41.3862 118.205C41.1657 118.469 41.0414 118.828 41.0408 119.202C41.0401 119.577 41.1631 119.936 41.3827 120.202C41.6023 120.467 41.9005 120.616 42.2117 120.617H96.3738C96.5281 120.618 96.6809 120.581 96.8235 120.51C96.9661 120.44 97.0957 120.336 97.2049 120.205C97.3141 120.073 97.4007 119.918 97.4598 119.746C97.5189 119.575 97.5493 119.391 97.5493 119.205C97.5493 119.02 97.5189 118.836 97.4598 118.664C97.4007 118.493 97.3141 118.337 97.2049 118.206C97.0957 118.075 96.9661 117.971 96.8235 117.9C96.6809 117.829 96.5281 117.793 96.3738 117.793H42.2166Z" fill="#CCEBFF"/>
<path d="M10.7823 17.3659H10.7783C10.6815 17.3652 10.5858 17.3397 10.4978 17.2911C10.4098 17.2425 10.3314 17.1718 10.2678 17.0839L6.6336 12.0626C6.57455 11.9813 6.5294 11.8868 6.50074 11.7845C6.47207 11.6822 6.46045 11.5741 6.46654 11.4664C6.47263 11.3587 6.4963 11.2535 6.53622 11.1569C6.57613 11.0602 6.63149 10.9739 6.69914 10.903C6.76679 10.8321 6.84539 10.778 6.93045 10.7437C7.01551 10.7094 7.10536 10.6956 7.19485 10.7031C7.28434 10.7106 7.37172 10.7393 7.45199 10.7875C7.53225 10.8358 7.60383 10.9025 7.66262 10.9841L10.7883 15.3029L20.1718 2.63501C20.2314 2.5543 20.3036 2.48852 20.3842 2.44142C20.4649 2.39433 20.5526 2.36684 20.6421 2.36053C20.7316 2.35423 20.8213 2.36923 20.906 2.40469C20.9907 2.44014 21.0688 2.49534 21.1357 2.56714C21.2027 2.63894 21.2572 2.72592 21.2962 2.8231C21.3352 2.92029 21.3579 3.02577 21.3629 3.13352C21.368 3.24126 21.3554 3.34916 21.3258 3.45102C21.2961 3.55289 21.2501 3.64672 21.1903 3.72716L11.2916 17.0912C11.2276 17.1776 11.1491 17.2467 11.0614 17.2941C10.9736 17.3414 10.8785 17.3659 10.7823 17.3659Z" fill="#80BCFF"/>
<path d="M10.8655 26.1499C7.98379 26.1499 5.22011 24.7724 3.18243 22.3204C1.14476 19.8683 0 16.5427 0 13.075C0 9.60727 1.14476 6.2816 3.18243 3.82957C5.22011 1.37754 7.98379 0 10.8655 0C10.9649 0 11.0602 0.0475009 11.1304 0.132054C11.2007 0.216606 11.2402 0.331285 11.2402 0.450861C11.2402 0.570436 11.2007 0.685115 11.1304 0.769668C11.0602 0.854221 10.9649 0.901721 10.8655 0.901721C8.86472 0.901764 6.90888 1.61575 5.24531 2.95339C3.58174 4.29103 2.28516 6.19224 1.51952 8.41661C0.753882 10.641 0.55357 13.0886 0.943924 15.45C1.33428 17.8113 2.29776 19.9804 3.71254 21.6828C5.12732 23.3853 6.92984 24.5446 8.89218 25.0143C10.8545 25.484 12.8885 25.2429 14.737 24.3215C16.5855 23.4002 18.1654 21.8399 19.277 19.838C20.3885 17.8362 20.9818 15.4826 20.9818 13.075C20.9818 12.9554 21.0213 12.8407 21.0916 12.7562C21.1618 12.6716 21.2571 12.6241 21.3565 12.6241C21.4559 12.6241 21.5512 12.6716 21.6214 12.7562C21.6917 12.8407 21.7312 12.9554 21.7312 13.075C21.7279 16.5415 20.582 19.8649 18.545 22.3161C16.508 24.7672 13.7462 26.146 10.8655 26.1499Z" fill="#80BCFF"/>
<path d="M168.519 181.712H168.515C168.418 181.712 168.323 181.686 168.235 181.638C168.147 181.589 168.068 181.518 168.005 181.43L164.371 176.409C164.311 176.328 164.266 176.233 164.238 176.131C164.209 176.029 164.197 175.921 164.203 175.813C164.21 175.705 164.233 175.6 164.273 175.503C164.313 175.407 164.368 175.32 164.436 175.25C164.504 175.179 164.582 175.124 164.667 175.09C164.752 175.056 164.842 175.042 164.932 175.05C165.021 175.057 165.109 175.086 165.189 175.134C165.269 175.182 165.341 175.249 165.4 175.331L168.525 179.649L177.909 166.982C177.968 166.901 178.041 166.835 178.121 166.789C178.202 166.742 178.289 166.714 178.379 166.708C178.468 166.702 178.558 166.717 178.642 166.752C178.727 166.788 178.805 166.843 178.872 166.915C178.939 166.987 178.993 167.073 179.032 167.17C179.071 167.267 179.094 167.373 179.099 167.48C179.104 167.588 179.092 167.696 179.062 167.798C179.033 167.899 178.987 167.993 178.927 168.074L169.029 181.438C168.965 181.524 168.886 181.593 168.798 181.641C168.711 181.688 168.615 181.712 168.519 181.712Z" fill="#80BCFF"/>
<path d="M168.603 190.496C165.721 190.496 162.957 189.119 160.919 186.667C158.882 184.215 157.737 180.889 157.737 177.421C157.737 173.954 158.882 170.628 160.919 168.176C162.957 165.724 165.721 164.346 168.603 164.346C168.702 164.346 168.797 164.394 168.867 164.478C168.938 164.563 168.977 164.678 168.977 164.797C168.977 164.917 168.938 165.032 168.867 165.116C168.797 165.201 168.702 165.248 168.603 165.248C166.602 165.248 164.646 165.962 162.982 167.3C161.319 168.637 160.022 170.539 159.256 172.763C158.491 174.987 158.29 177.435 158.681 179.796C159.071 182.158 160.035 184.327 161.449 186.029C162.864 187.732 164.667 188.891 166.629 189.361C168.591 189.83 170.625 189.589 172.474 188.668C174.322 187.747 175.902 186.186 177.014 184.184C178.125 182.183 178.719 179.829 178.719 177.421C178.719 177.302 178.758 177.187 178.828 177.103C178.899 177.018 178.994 176.971 179.093 176.971C179.193 176.971 179.288 177.018 179.358 177.103C179.429 177.187 179.468 177.302 179.468 177.421C179.465 180.888 178.319 184.211 176.282 186.662C174.245 189.114 171.483 190.492 168.603 190.496Z" fill="#80BCFF"/>
<path d="M241.027 170.472C240.675 169.962 240.42 169.366 240.28 168.725C240.139 168.084 240.118 167.414 240.216 166.762C240.314 166.11 240.53 165.491 240.849 164.95C241.167 164.41 241.58 163.959 242.059 163.631L239.615 147.791L246.025 151.046L247.363 165.59C247.768 166.594 247.852 167.742 247.6 168.816C247.348 169.89 246.778 170.815 245.997 171.417C245.216 172.019 244.279 172.255 243.363 172.081C242.447 171.906 241.616 171.334 241.027 170.472V170.472Z" fill="#F1F1F1"/>
<path d="M181.603 170.472C181.955 169.962 182.211 169.366 182.351 168.725C182.491 168.084 182.513 167.414 182.414 166.762C182.316 166.11 182.1 165.491 181.781 164.95C181.463 164.41 181.05 163.959 180.571 163.631L183.016 147.791L176.606 151.046L175.267 165.59C174.863 166.594 174.778 167.742 175.03 168.816C175.282 169.89 175.852 170.815 176.633 171.417C177.414 172.019 178.351 172.255 179.267 172.081C180.183 171.906 181.014 171.334 181.603 170.472V170.472Z" fill="#F1F1F1"/>
<path d="M205.453 274.047H200.86L198.675 252.727H205.454L205.453 274.047Z" fill="#F1F1F1"/>
<path d="M206.625 279.405L191.814 279.405V279.179C191.814 277.339 192.421 275.575 193.502 274.274C194.584 272.973 196.05 272.242 197.579 272.242H197.579L206.625 272.243L206.625 279.405Z" fill="#80BCFF"/>
<path d="M224.562 274.047H219.968L217.783 252.727H224.562L224.562 274.047Z" fill="#F1F1F1"/>
<path d="M225.733 279.405L210.922 279.405V279.179C210.922 277.339 211.53 275.575 212.611 274.274C213.692 272.973 215.158 272.242 216.687 272.242H216.687L225.733 272.243L225.733 279.405Z" fill="#80BCFF"/>
<path d="M197.234 145.193L191.27 153.098L193.893 212.291L198.389 268.954H206.58L214.125 167.769L217.484 268.954H226.264L236.567 150.026L197.234 145.193Z" fill="#80BCFF"/>
<path d="M235.107 76.4363L219.183 64.4885L216.935 57.7256H202.049L200.45 64.0376L183.964 76.2109L190.521 110.702L191.27 153.083C191.27 153.083 216.748 171.568 236.606 150.828L228.55 101.459L235.107 76.4363Z" fill="#CCEBFF"/>
<path d="M189.022 76.8872L183.964 76.2109C183.964 76.2109 178.906 80.945 178.157 91.3148C177.407 101.685 178.157 121.404 178.157 121.404L175.159 159.846L181.529 160.296L189.771 121.973L190.521 104.2L189.022 76.8872Z" fill="#CCEBFF"/>
<path d="M229.861 76.8872L234.92 76.2109C234.92 76.2109 239.978 80.945 240.727 91.3148C241.476 101.685 244.474 121.404 244.474 121.404L247.471 159.846L241.102 160.296L232.859 121.973L228.363 104.2L229.861 76.8872Z" fill="#CCEBFF"/>
<path d="M219.028 45.2512C222.284 38.0844 220.095 29.0987 214.139 25.181C208.183 21.2633 200.716 23.8971 197.46 31.0639C194.205 38.2307 196.393 47.2165 202.349 51.1342C208.305 55.0519 215.772 52.418 219.028 45.2512Z" fill="#F1F1F1"/>
<path d="M222.283 38.4427C222.417 37.5287 222.26 36.5875 221.843 35.8068C222.245 35.0308 222.525 34.1725 222.668 33.2747C223.003 30.5847 221.291 29.5992 220.187 27.5676C219.709 26.6862 219.925 26.3379 219.898 25.4013C219.853 24.1365 219.514 22.9122 218.921 21.8666C218.24 20.5068 217.512 19.0891 216.369 18.2054C213.966 16.3484 210.888 17.5828 208.134 16.7905C206.921 16.4413 205.788 15.6979 204.578 15.3255C203.368 14.9531 201.943 15.0497 201.241 16.1148C200.918 16.6065 200.788 17.247 200.463 17.7379C199.818 18.7135 198.593 18.8763 197.596 19.3652C195.392 20.4462 194.257 23.3056 194.306 26.1286C194.32 26.7202 194.374 27.3093 194.468 27.8903C194.085 28.9657 193.898 30.1272 193.92 31.2966C193.968 34.1196 195.014 36.9083 196.263 39.4818C196.437 38.677 196.679 37.8956 196.984 37.1496C197.071 36.8901 197.214 36.6639 197.4 36.4955C197.824 36.1684 198.43 36.4133 198.967 36.439C200.079 36.4923 200.963 35.549 201.486 34.4945C202.009 33.4399 202.297 32.2248 202.897 31.2292C203.021 30.9823 203.189 30.772 203.39 30.6137C203.59 30.4554 203.817 30.3531 204.055 30.3144C204.472 30.3357 204.878 30.4867 205.232 30.7525C207.042 31.8687 208.912 33.0812 210.896 33.2316C211.575 33.2112 212.254 33.281 212.921 33.4395C214.424 33.9614 215.317 35.8793 215.512 37.6227C215.708 39.3662 215.411 41.0843 215.528 42.8284C215.646 44.5726 216.342 46.5257 217.779 47.2957C217.93 47.4002 218.109 47.4287 218.278 47.3751C218.388 47.3029 218.475 47.1892 218.527 47.0514L221.218 41.4786C221.729 40.5569 222.091 39.5267 222.283 38.4427Z" fill="#80BCFF"/>
<path d="M280 279.549C280 279.669 279.96 279.783 279.89 279.868C279.82 279.952 279.725 280 279.625 280H136.875C136.776 280 136.68 279.953 136.61 279.868C136.54 279.784 136.5 279.669 136.5 279.549C136.5 279.43 136.54 279.315 136.61 279.23C136.68 279.146 136.776 279.098 136.875 279.098H279.625C279.725 279.099 279.82 279.146 279.89 279.231C279.96 279.315 280 279.43 280 279.549Z" fill="#B3E0FF"/>
<path d="M129.697 37.7896H0.434692V38.6913H129.697V37.7896Z" fill="#CCEBFF"/>
<path d="M129.697 88.2859H0.434692V89.1876H129.697V88.2859Z" fill="#CCEBFF"/>
<path d="M129.697 138.782H0.434692V139.684H129.697V138.782Z" fill="#CCEBFF"/>
</g>
<defs>
<clipPath id="clip0">
<rect width="280" height="280" fill="white"/>
</clipPath>
</defs>
</svg>
