<svg width="12" height="12" viewBox="0 0 12 12" fill="none" xmlns="http://www.w3.org/2000/svg">
<path d="M8.79922 7.7389H8.24317L8.0461 7.54897C8.48593 7.0382 8.80746 6.43662 8.9875 5.78727C9.16762 5.13785 9.20183 4.45673 9.0878 3.79257C8.75699 1.837 7.12404 0.275353 5.15325 0.0361825C4.46037 -0.0514172 3.75663 0.0205521 3.09588 0.246575C2.43513 0.472605 1.83487 0.846703 1.34104 1.34025C0.8472 1.83379 0.472883 2.4337 0.24672 3.09407C0.0205642 3.75443 -0.0514473 4.45775 0.0362038 5.15023C0.275514 7.11987 1.83808 8.75186 3.7948 9.08247C4.45934 9.19643 5.14086 9.16224 5.79066 8.98223C6.44039 8.80229 7.04233 8.48096 7.5534 8.04138L7.74344 8.23834V8.79406L10.7348 11.7837C11.0234 12.0721 11.495 12.0721 11.7836 11.7837C12.0721 11.4953 12.0721 11.024 11.7836 10.7356L8.79922 7.7389ZM4.57607 7.7389C2.82347 7.7389 1.40872 6.32498 1.40872 4.57339C1.40872 2.82181 2.82347 1.4079 4.57607 1.4079C6.32869 1.4079 7.74344 2.82181 7.74344 4.57339C7.74344 6.32498 6.32869 7.7389 4.57607 7.7389Z" fill="#2D9CDB"/>
</svg>
