<svg width="18" height="18" viewBox="0 0 18 18" fill="none" xmlns="http://www.w3.org/2000/svg">
<path d="M12.7574 14.9999C12.4213 15.0036 12.0889 14.9333 11.7861 14.7947C11.4834 14.656 11.2185 14.4527 11.0122 14.2006C10.806 13.9485 10.6639 13.6544 10.5971 13.3415C10.5304 13.0285 10.5407 12.7052 10.6274 12.3967L6.68597 10.2564C6.35348 10.5458 5.93542 10.7312 5.48839 10.7874C5.04135 10.8435 4.58694 10.7678 4.18669 10.5705C3.78643 10.3732 3.45967 10.0638 3.25064 9.68425C3.04161 9.30466 2.96041 8.87321 3.01804 8.44832C3.07567 8.02344 3.26934 7.62564 3.57284 7.30879C3.87633 6.99195 4.27498 6.77136 4.71481 6.67689C5.15464 6.58243 5.6144 6.61866 6.03184 6.78067C6.44927 6.94268 6.80423 7.22264 7.04863 7.58266L10.6268 5.63924C10.5805 5.47306 10.5559 5.30209 10.5537 5.1302C10.5493 4.64463 10.7212 4.17246 11.0404 3.79319C11.3596 3.41392 11.8065 3.15071 12.3061 3.04789C12.8056 2.94507 13.3272 3.00892 13.783 3.22868C14.2387 3.44844 14.6009 3.81069 14.8085 4.25444C15.016 4.69819 15.0563 5.19633 14.9225 5.66498C14.7887 6.13364 14.489 6.54418 14.0739 6.82749C13.6588 7.11079 13.1536 7.24956 12.6434 7.22041C12.1332 7.19127 11.6491 6.99599 11.2727 6.66747L7.40058 8.77001C7.39618 8.92553 7.37351 9.07926 7.33196 9.2294L11.2734 11.369C11.5372 11.139 11.8561 10.9737 12.2024 10.8873C12.5487 10.8009 12.9119 10.7961 13.2607 10.8733C13.6094 10.9505 13.933 11.1073 14.2034 11.3303C14.4738 11.5532 14.6829 11.8355 14.8125 12.1526C14.9421 12.4697 14.9883 12.812 14.9471 13.1499C14.9059 13.4878 14.7785 13.811 14.5761 14.0916C14.3736 14.3721 14.1021 14.6015 13.7851 14.7598C13.4682 14.918 13.1154 15.0005 12.7574 14.9999ZM12.7574 12.0091C12.5069 12.0091 12.2667 12.1036 12.0896 12.2719C11.9125 12.4401 11.813 12.6683 11.813 12.9063C11.813 13.1443 11.9125 13.3725 12.0896 13.5407C12.2667 13.709 12.5069 13.8035 12.7574 13.8035C13.0079 13.8035 13.2481 13.709 13.4252 13.5407C13.6023 13.3725 13.7018 13.1443 13.7018 12.9063C13.7018 12.6683 13.6023 12.4401 13.4252 12.2719C13.2481 12.1036 13.0079 12.0091 12.7574 12.0091ZM5.20196 7.82193C4.95148 7.82193 4.71126 7.91646 4.53415 8.08472C4.35703 8.25299 4.25753 8.4812 4.25753 8.71917C4.25753 8.95713 4.35703 9.18535 4.53415 9.35361C4.71126 9.52188 4.95148 9.61641 5.20196 9.61641C5.45244 9.61641 5.69265 9.52188 5.86977 9.35361C6.04688 9.18535 6.14638 8.95713 6.14638 8.71917C6.14638 8.4812 6.04688 8.25299 5.86977 8.08472C5.69265 7.91646 5.45244 7.82193 5.20196 7.82193ZM12.7574 4.23296C12.6334 4.23296 12.5105 4.25617 12.396 4.30126C12.2814 4.34635 12.1773 4.41244 12.0896 4.49575C12.0019 4.57907 11.9323 4.67798 11.8848 4.78684C11.8374 4.8957 11.813 5.01237 11.813 5.1302C11.813 5.24803 11.8374 5.3647 11.8848 5.47356C11.9323 5.58242 12.0019 5.68133 12.0896 5.76465C12.1773 5.84796 12.2814 5.91405 12.396 5.95914C12.5105 6.00423 12.6334 6.02744 12.7574 6.02744C13.0079 6.02744 13.2481 5.93291 13.4252 5.76465C13.6023 5.59638 13.7018 5.36816 13.7018 5.1302C13.7018 4.89224 13.6023 4.66402 13.4252 4.49575C13.2481 4.32749 13.0079 4.23296 12.7574 4.23296Z" fill="#202A40"/>
</svg>
