<svg width="20" height="20" viewBox="0 0 20 20" fill="none" xmlns="http://www.w3.org/2000/svg">
<path d="M18.889 9.32224C19.0954 9.16842 19.2486 8.95383 19.327 8.70857C19.4053 8.46332 19.405 8.19968 19.326 7.95463C19.2469 7.70958 19.0932 7.49541 18.8863 7.34215C18.6794 7.18889 18.4297 7.10422 18.1723 7.10001L13.1723 6.91112C13.1477 6.90943 13.1241 6.90066 13.1044 6.88587C13.0847 6.87109 13.0697 6.85092 13.0612 6.82779L11.3334 2.16112C11.2466 1.9237 11.0889 1.71869 10.8817 1.57384C10.6746 1.429 10.4279 1.35132 10.1751 1.35132C9.92228 1.35132 9.67559 1.429 9.46841 1.57384C9.26122 1.71869 9.10355 1.9237 9.01674 2.16112L7.29452 6.84446C7.28601 6.86758 7.27099 6.88775 7.25127 6.90254C7.23156 6.91732 7.20799 6.92609 7.18341 6.92779L2.18341 7.11668C1.92597 7.12088 1.6763 7.20555 1.4694 7.35882C1.26251 7.51208 1.10877 7.72625 1.02975 7.9713C0.950719 8.21635 0.950364 8.47998 1.02873 8.72524C1.1071 8.9705 1.26026 9.18508 1.46674 9.3389L5.38896 12.4222C5.40859 12.4377 5.42326 12.4585 5.43116 12.4822C5.43906 12.5059 5.43984 12.5314 5.43341 12.5556L4.08341 17.3389C4.01345 17.5825 4.02023 17.8417 4.10282 18.0813C4.18541 18.3209 4.3398 18.5292 4.54499 18.6779C4.75018 18.8267 4.99621 18.9086 5.2496 18.9125C5.503 18.9165 5.75146 18.8423 5.96119 18.7L10.1056 15.9222C10.126 15.9081 10.1503 15.9006 10.1751 15.9006C10.1999 15.9006 10.2241 15.9081 10.2445 15.9222L14.389 18.7C14.5959 18.8471 14.8434 18.9262 15.0973 18.9262C15.3512 18.9262 15.5987 18.8471 15.8056 18.7C16.0109 18.5527 16.1654 18.3454 16.248 18.1066C16.3306 17.8678 16.3371 17.6093 16.2667 17.3667L14.9056 12.5667C14.8984 12.5426 14.8988 12.5168 14.9068 12.493C14.9147 12.4691 14.9298 12.4483 14.9501 12.4333L18.889 9.32224Z" fill="#A6BEFF"/>
</svg>
