<svg width="16" height="17" viewBox="0 0 16 17" fill="none" xmlns="http://www.w3.org/2000/svg">
<path d="M13.855 2.14708C13.7875 2.07992 13.7023 2.03342 13.6093 2.01305C13.5163 1.99267 13.4194 1.99928 13.33 2.03208L2.33 6.03208C2.23513 6.06807 2.15346 6.13206 2.09583 6.21556C2.03819 6.29906 2.00732 6.39812 2.00732 6.49958C2.00732 6.60104 2.03819 6.7001 2.09583 6.7836C2.15346 6.86711 2.23513 6.9311 2.33 6.96708L6.625 8.68208L9.795 5.50208L10.5 6.20708L7.315 9.39208L9.035 13.6871C9.07205 13.7801 9.13619 13.8599 9.21909 13.916C9.302 13.9722 9.39986 14.0022 9.5 14.0021C9.60104 14 9.69909 13.9674 9.7812 13.9085C9.86332 13.8495 9.92566 13.7671 9.96 13.6721L13.96 2.67208C13.9941 2.58362 14.0023 2.4873 13.9837 2.39434C13.9651 2.30139 13.9205 2.21564 13.855 2.14708Z" fill="white"/>
</svg>
