<svg width="18" height="18" viewBox="0 0 18 18" fill="none" xmlns="http://www.w3.org/2000/svg">
<path d="M3 4.20557L4.53533 12.6895C4.61487 13.1291 4.82753 13.5402 5.14973 13.8771C5.47193 14.214 5.89108 14.4637 6.36067 14.5984L6.57933 14.6611C8.15438 15.1131 9.84562 15.1131 11.4207 14.6611L11.6393 14.5984C12.1088 14.4637 12.5279 14.2142 12.8501 13.8774C13.1723 13.5405 13.385 13.1296 13.4647 12.6901L15 4.20557" stroke="#202A40" stroke-width="2" stroke-linecap="round" stroke-linejoin="round"/>
<path d="M9 5.41091C12.3137 5.41091 15 4.87121 15 4.20545C15 3.5397 12.3137 3 9 3C5.68629 3 3 3.5397 3 4.20545C3 4.87121 5.68629 5.41091 9 5.41091Z" stroke="#202A40" stroke-width="2" stroke-linecap="round" stroke-linejoin="round"/>
</svg>
